<mxfile host="app.diagrams.net" modified="2023-04-17T15:50:08.412Z" agent="Mozilla/5.0 (Windows NT 10.0; Win64; x64; rv:109.0) Gecko/20100101 Firefox/111.0" etag="vSrRPrB1qi9s3CbWWCxb" version="21.1.8" type="device">
  <diagram name="Page-1" id="2YBvvXClWsGukQMizWep">
    <mxGraphModel dx="1434" dy="1846" grid="1" gridSize="10" guides="1" tooltips="1" connect="1" arrows="1" fold="1" page="1" pageScale="1" pageWidth="850" pageHeight="1100" math="0" shadow="0">
      <root>
        <mxCell id="0" />
        <mxCell id="1" parent="0" />
        <mxCell id="oVOLBsGLlzsqhmZdUE2w-22" style="edgeStyle=orthogonalEdgeStyle;rounded=0;orthogonalLoop=1;jettySize=auto;html=1;exitX=1;exitY=0.25;exitDx=0;exitDy=0;entryX=0;entryY=0.25;entryDx=0;entryDy=0;" edge="1" parent="1" source="oVOLBsGLlzsqhmZdUE2w-3" target="oVOLBsGLlzsqhmZdUE2w-4">
          <mxGeometry relative="1" as="geometry" />
        </mxCell>
        <mxCell id="oVOLBsGLlzsqhmZdUE2w-41" style="edgeStyle=orthogonalEdgeStyle;rounded=0;orthogonalLoop=1;jettySize=auto;html=1;exitX=0.5;exitY=0;exitDx=0;exitDy=0;entryX=0.503;entryY=0.996;entryDx=0;entryDy=0;entryPerimeter=0;dashed=1;" edge="1" parent="1" source="oVOLBsGLlzsqhmZdUE2w-3" target="oVOLBsGLlzsqhmZdUE2w-38">
          <mxGeometry relative="1" as="geometry" />
        </mxCell>
        <mxCell id="oVOLBsGLlzsqhmZdUE2w-3" value="" style="rounded=0;whiteSpace=wrap;html=1;" vertex="1" parent="1">
          <mxGeometry x="70" y="260" width="60" height="290" as="geometry" />
        </mxCell>
        <mxCell id="oVOLBsGLlzsqhmZdUE2w-23" style="edgeStyle=orthogonalEdgeStyle;rounded=0;orthogonalLoop=1;jettySize=auto;html=1;exitX=0;exitY=0.5;exitDx=0;exitDy=0;entryX=1;entryY=0.5;entryDx=0;entryDy=0;" edge="1" parent="1" source="oVOLBsGLlzsqhmZdUE2w-4" target="oVOLBsGLlzsqhmZdUE2w-3">
          <mxGeometry relative="1" as="geometry" />
        </mxCell>
        <mxCell id="oVOLBsGLlzsqhmZdUE2w-24" style="edgeStyle=orthogonalEdgeStyle;rounded=0;orthogonalLoop=1;jettySize=auto;html=1;exitX=1;exitY=0.25;exitDx=0;exitDy=0;entryX=0;entryY=0.25;entryDx=0;entryDy=0;" edge="1" parent="1" source="oVOLBsGLlzsqhmZdUE2w-4" target="oVOLBsGLlzsqhmZdUE2w-5">
          <mxGeometry relative="1" as="geometry" />
        </mxCell>
        <mxCell id="oVOLBsGLlzsqhmZdUE2w-42" style="edgeStyle=orthogonalEdgeStyle;rounded=0;orthogonalLoop=1;jettySize=auto;html=1;exitX=0.5;exitY=0;exitDx=0;exitDy=0;entryX=0.567;entryY=1;entryDx=0;entryDy=0;entryPerimeter=0;dashed=1;" edge="1" parent="1" source="oVOLBsGLlzsqhmZdUE2w-4" target="oVOLBsGLlzsqhmZdUE2w-38">
          <mxGeometry relative="1" as="geometry" />
        </mxCell>
        <mxCell id="oVOLBsGLlzsqhmZdUE2w-4" value="" style="rounded=0;whiteSpace=wrap;html=1;" vertex="1" parent="1">
          <mxGeometry x="260" y="260" width="60" height="290" as="geometry" />
        </mxCell>
        <mxCell id="oVOLBsGLlzsqhmZdUE2w-25" style="edgeStyle=orthogonalEdgeStyle;rounded=0;orthogonalLoop=1;jettySize=auto;html=1;exitX=0;exitY=0.5;exitDx=0;exitDy=0;entryX=1;entryY=0.5;entryDx=0;entryDy=0;" edge="1" parent="1" source="oVOLBsGLlzsqhmZdUE2w-5" target="oVOLBsGLlzsqhmZdUE2w-4">
          <mxGeometry relative="1" as="geometry" />
        </mxCell>
        <mxCell id="oVOLBsGLlzsqhmZdUE2w-30" style="edgeStyle=orthogonalEdgeStyle;rounded=0;orthogonalLoop=1;jettySize=auto;html=1;exitX=1;exitY=0.25;exitDx=0;exitDy=0;entryX=0;entryY=0.25;entryDx=0;entryDy=0;" edge="1" parent="1" source="oVOLBsGLlzsqhmZdUE2w-5">
          <mxGeometry relative="1" as="geometry">
            <mxPoint x="660" y="332.5" as="targetPoint" />
          </mxGeometry>
        </mxCell>
        <mxCell id="oVOLBsGLlzsqhmZdUE2w-5" value="" style="rounded=0;whiteSpace=wrap;html=1;" vertex="1" parent="1">
          <mxGeometry x="470" y="260" width="60" height="290" as="geometry" />
        </mxCell>
        <mxCell id="oVOLBsGLlzsqhmZdUE2w-12" value="&lt;u&gt;UserAndWorkout&lt;/u&gt;" style="swimlane;fontStyle=1;align=center;verticalAlign=top;childLayout=stackLayout;horizontal=1;startSize=26;horizontalStack=0;resizeParent=1;resizeParentMax=0;resizeLast=0;collapsible=1;marginBottom=0;whiteSpace=wrap;html=1;" vertex="1" parent="1">
          <mxGeometry x="320" y="-50" width="190" height="104" as="geometry" />
        </mxCell>
        <mxCell id="oVOLBsGLlzsqhmZdUE2w-13" value="&lt;div&gt;&lt;u&gt;+ currentWorkout: Workout&lt;/u&gt;&lt;/div&gt;&lt;div&gt;&lt;u&gt;+ currentUser: User&lt;/u&gt;&lt;br&gt;&lt;/div&gt;" style="text;strokeColor=none;fillColor=none;align=left;verticalAlign=top;spacingLeft=4;spacingRight=4;overflow=hidden;rotatable=0;points=[[0,0.5],[1,0.5]];portConstraint=eastwest;whiteSpace=wrap;html=1;" vertex="1" parent="oVOLBsGLlzsqhmZdUE2w-12">
          <mxGeometry y="26" width="190" height="44" as="geometry" />
        </mxCell>
        <mxCell id="oVOLBsGLlzsqhmZdUE2w-14" value="" style="line;strokeWidth=1;fillColor=none;align=left;verticalAlign=middle;spacingTop=-1;spacingLeft=3;spacingRight=3;rotatable=0;labelPosition=right;points=[];portConstraint=eastwest;strokeColor=inherit;" vertex="1" parent="oVOLBsGLlzsqhmZdUE2w-12">
          <mxGeometry y="70" width="190" height="8" as="geometry" />
        </mxCell>
        <mxCell id="oVOLBsGLlzsqhmZdUE2w-15" value="&lt;u&gt;+ isWorkoutPresent(): boolean&lt;/u&gt;" style="text;strokeColor=none;fillColor=none;align=left;verticalAlign=top;spacingLeft=4;spacingRight=4;overflow=hidden;rotatable=0;points=[[0,0.5],[1,0.5]];portConstraint=eastwest;whiteSpace=wrap;html=1;" vertex="1" parent="oVOLBsGLlzsqhmZdUE2w-12">
          <mxGeometry y="78" width="190" height="26" as="geometry" />
        </mxCell>
        <mxCell id="oVOLBsGLlzsqhmZdUE2w-18" value="&lt;div&gt;View&lt;/div&gt;" style="text;html=1;strokeColor=none;fillColor=none;align=center;verticalAlign=middle;whiteSpace=wrap;rounded=0;" vertex="1" parent="1">
          <mxGeometry x="70" y="550" width="60" height="30" as="geometry" />
        </mxCell>
        <mxCell id="oVOLBsGLlzsqhmZdUE2w-20" value="&lt;div&gt;Repository&lt;/div&gt;" style="text;html=1;strokeColor=none;fillColor=none;align=center;verticalAlign=middle;whiteSpace=wrap;rounded=0;" vertex="1" parent="1">
          <mxGeometry x="470" y="550" width="60" height="30" as="geometry" />
        </mxCell>
        <mxCell id="oVOLBsGLlzsqhmZdUE2w-21" value="Manager" style="text;html=1;strokeColor=none;fillColor=none;align=center;verticalAlign=middle;whiteSpace=wrap;rounded=0;" vertex="1" parent="1">
          <mxGeometry x="260" y="550" width="60" height="30" as="geometry" />
        </mxCell>
        <mxCell id="oVOLBsGLlzsqhmZdUE2w-31" style="edgeStyle=orthogonalEdgeStyle;rounded=0;orthogonalLoop=1;jettySize=auto;html=1;exitX=0;exitY=0.5;exitDx=0;exitDy=0;entryX=1;entryY=0.5;entryDx=0;entryDy=0;" edge="1" parent="1" target="oVOLBsGLlzsqhmZdUE2w-5">
          <mxGeometry relative="1" as="geometry">
            <mxPoint x="660" y="405" as="sourcePoint" />
          </mxGeometry>
        </mxCell>
        <mxCell id="oVOLBsGLlzsqhmZdUE2w-33" value="" style="ellipse;shape=cloud;whiteSpace=wrap;html=1;" vertex="1" parent="1">
          <mxGeometry x="650" y="330" width="120" height="80" as="geometry" />
        </mxCell>
        <mxCell id="oVOLBsGLlzsqhmZdUE2w-32" value="Server" style="text;html=1;strokeColor=none;fillColor=none;align=center;verticalAlign=middle;whiteSpace=wrap;rounded=0;" vertex="1" parent="1">
          <mxGeometry x="680" y="355" width="60" height="30" as="geometry" />
        </mxCell>
        <mxCell id="oVOLBsGLlzsqhmZdUE2w-43" style="edgeStyle=orthogonalEdgeStyle;rounded=0;orthogonalLoop=1;jettySize=auto;html=1;exitX=0.5;exitY=0;exitDx=0;exitDy=0;entryX=0;entryY=0.5;entryDx=0;entryDy=0;" edge="1" parent="1" source="oVOLBsGLlzsqhmZdUE2w-35" target="oVOLBsGLlzsqhmZdUE2w-13">
          <mxGeometry relative="1" as="geometry" />
        </mxCell>
        <mxCell id="oVOLBsGLlzsqhmZdUE2w-35" value="&lt;div&gt;CurrentUserAndWorkoutProvider&lt;/div&gt;" style="swimlane;fontStyle=1;align=center;verticalAlign=top;childLayout=stackLayout;horizontal=1;startSize=26;horizontalStack=0;resizeParent=1;resizeParentMax=0;resizeLast=0;collapsible=1;marginBottom=0;whiteSpace=wrap;html=1;" vertex="1" parent="1">
          <mxGeometry x="40" y="70" width="300" height="110" as="geometry" />
        </mxCell>
        <mxCell id="oVOLBsGLlzsqhmZdUE2w-37" value="" style="line;strokeWidth=1;fillColor=none;align=left;verticalAlign=middle;spacingTop=-1;spacingLeft=3;spacingRight=3;rotatable=0;labelPosition=right;points=[];portConstraint=eastwest;strokeColor=inherit;" vertex="1" parent="oVOLBsGLlzsqhmZdUE2w-35">
          <mxGeometry y="26" width="300" height="8" as="geometry" />
        </mxCell>
        <mxCell id="oVOLBsGLlzsqhmZdUE2w-38" value="&lt;div&gt;+ provideCurrentUserAndWorkout(): UserAndWorkout&lt;/div&gt;&lt;div&gt;+ provideCurrentUser(): User&lt;/div&gt;&lt;div&gt;+ provideCurrentWorkout(): Workout&lt;br&gt;&lt;/div&gt;" style="text;strokeColor=none;fillColor=none;align=left;verticalAlign=top;spacingLeft=4;spacingRight=4;overflow=hidden;rotatable=0;points=[[0,0.5],[1,0.5]];portConstraint=eastwest;whiteSpace=wrap;html=1;" vertex="1" parent="oVOLBsGLlzsqhmZdUE2w-35">
          <mxGeometry y="34" width="300" height="76" as="geometry" />
        </mxCell>
        <mxCell id="oVOLBsGLlzsqhmZdUE2w-44" value="SETS" style="text;html=1;strokeColor=none;fillColor=none;align=center;verticalAlign=middle;whiteSpace=wrap;rounded=0;" vertex="1" parent="1">
          <mxGeometry x="200" y="-30" width="60" height="30" as="geometry" />
        </mxCell>
      </root>
    </mxGraphModel>
  </diagram>
</mxfile>
